<svg version="1.1" xmlns="http://www.w3.org/2000/svg" viewBox="0 0 562.3536513384911 165.87465339671226" width="562.3536513384911" height="165.87465339671226">
  <!-- svg-source:excalidraw -->
  
  <defs>
    <style>
      @font-face {
        font-family: "Virgil";
        src: url("https://excalidraw.com/Virgil.woff2");
      }
      @font-face {
        font-family: "Cascadia";
        src: url("https://excalidraw.com/Cascadia.woff2");
      }
    </style>
  </defs>
  <rect x="0" y="0" width="562.3536513384911" height="165.87465339671226" fill="#ffffff"></rect><g stroke-linecap="round" transform="translate(10 50.539089834585894) rotate(0 40.5 18.5)"><path d="M9.25 0 M9.25 0 C24.15 0, 39.05 0, 71.75 0 M9.25 0 C24.55 0, 39.85 0, 71.75 0 M71.75 0 C77.92 0, 81 3.08, 81 9.25 M71.75 0 C77.92 0, 81 3.08, 81 9.25 M81 9.25 C81 16.28, 81 23.3, 81 27.75 M81 9.25 C81 13.33, 81 17.42, 81 27.75 M81 27.75 C81 33.92, 77.92 37, 71.75 37 M81 27.75 C81 33.92, 77.92 37, 71.75 37 M71.75 37 C50.9 37, 30.05 37, 9.25 37 M71.75 37 C51.51 37, 31.27 37, 9.25 37 M9.25 37 C3.08 37, 0 33.92, 0 27.75 M9.25 37 C3.08 37, 0 33.92, 0 27.75 M0 27.75 C0 21.73, 0 15.71, 0 9.25 M0 27.75 C0 23.56, 0 19.37, 0 9.25 M0 9.25 C0 3.08, 3.08 0, 9.25 0 M0 9.25 C0 3.08, 3.08 0, 9.25 0" stroke="#000000" stroke-width="2" fill="none"></path></g><g stroke-linecap="round"><g transform="translate(59.032222767062535 50.80579373201064) rotate(0 0 18.392857142857153)"><path d="M0 0 C0 6.13, 0 30.65, 0 36.79 M0 0 C0 6.13, 0 30.65, 0 36.79" stroke="#000000" stroke-width="2" fill="none"></path></g></g><g transform="translate(28.071428571428555 56.3248041203002) rotate(0 6 12)"><text x="6" y="19" font-family="Cascadia, Segoe UI Emoji" font-size="20px" fill="#000000" text-anchor="middle" style="white-space: pre;" direction="ltr">1</text></g><g stroke-linecap="round" transform="translate(133.83841283462277 50.539089834585894) rotate(0 40.5 18.5)"><path d="M9.25 0 M9.25 0 C24.51 0, 39.77 0, 71.75 0 M9.25 0 C22.02 0, 34.8 0, 71.75 0 M71.75 0 C77.92 0, 81 3.08, 81 9.25 M71.75 0 C77.92 0, 81 3.08, 81 9.25 M81 9.25 C81 15.8, 81 22.34, 81 27.75 M81 9.25 C81 15.05, 81 20.86, 81 27.75 M81 27.75 C81 33.92, 77.92 37, 71.75 37 M81 27.75 C81 33.92, 77.92 37, 71.75 37 M71.75 37 C53.21 37, 34.68 37, 9.25 37 M71.75 37 C55.4 37, 39.05 37, 9.25 37 M9.25 37 C3.08 37, 0 33.92, 0 27.75 M9.25 37 C3.08 37, 0 33.92, 0 27.75 M0 27.75 C0 20.76, 0 13.78, 0 9.25 M0 27.75 C0 20.98, 0 14.22, 0 9.25 M0 9.25 C0 3.08, 3.08 0, 9.25 0 M0 9.25 C0 3.08, 3.08 0, 9.25 0" stroke="#000000" stroke-width="2" fill="none"></path></g><g stroke-linecap="round"><g transform="translate(182.8706356016852 50.80579373201064) rotate(0 0 18.392857142857153)"><path d="M0 0 C0 6.13, 0 30.65, 0 36.79 M0 0 C0 6.13, 0 30.65, 0 36.79" stroke="#000000" stroke-width="2" fill="none"></path></g></g><g transform="translate(151.90984140605144 56.32480412030023) rotate(0 6 12)"><text x="6" y="19" font-family="Cascadia, Segoe UI Emoji" font-size="20px" fill="#000000" text-anchor="middle" style="white-space: pre;" direction="ltr">2</text></g><g stroke-linecap="round" transform="translate(257.67682566924555 50.539089834585894) rotate(0 40.5 18.5)"><path d="M9.25 0 M9.25 0 C31.56 0, 53.87 0, 71.75 0 M9.25 0 C31.01 0, 52.77 0, 71.75 0 M71.75 0 C77.92 0, 81 3.08, 81 9.25 M71.75 0 C77.92 0, 81 3.08, 81 9.25 M81 9.25 C81 13.8, 81 18.35, 81 27.75 M81 9.25 C81 15.27, 81 21.28, 81 27.75 M81 27.75 C81 33.92, 77.92 37, 71.75 37 M81 27.75 C81 33.92, 77.92 37, 71.75 37 M71.75 37 C54.08 37, 36.41 37, 9.25 37 M71.75 37 C57.42 37, 43.09 37, 9.25 37 M9.25 37 C3.08 37, 0 33.92, 0 27.75 M9.25 37 C3.08 37, 0 33.92, 0 27.75 M0 27.75 C0 23.32, 0 18.89, 0 9.25 M0 27.75 C0 21.41, 0 15.07, 0 9.25 M0 9.25 C0 3.08, 3.08 0, 9.25 0 M0 9.25 C0 3.08, 3.08 0, 9.25 0" stroke="#000000" stroke-width="2" fill="none"></path></g><g stroke-linecap="round"><g transform="translate(306.7090484363082 50.80579373201064) rotate(0 0 18.392857142857153)"><path d="M0 0 C0 6.13, 0 30.65, 0 36.79 M0 0 C0 6.13, 0 30.65, 0 36.79" stroke="#000000" stroke-width="2" fill="none"></path></g></g><g transform="translate(275.7482542406742 56.32480412030017) rotate(0 6 12)"><text x="6" y="19" font-family="Cascadia, Segoe UI Emoji" font-size="20px" fill="#000000" text-anchor="middle" style="white-space: pre;" direction="ltr">3</text></g><g stroke-linecap="round" transform="translate(381.5152385038683 50.539089834585894) rotate(0 40.5 18.5)"><path d="M9.25 0 M9.25 0 C26.41 0, 43.56 0, 71.75 0 M9.25 0 C29.42 0, 49.6 0, 71.75 0 M71.75 0 C77.92 0, 81 3.08, 81 9.25 M71.75 0 C77.92 0, 81 3.08, 81 9.25 M81 9.25 C81 14.7, 81 20.14, 81 27.75 M81 9.25 C81 14.17, 81 19.1, 81 27.75 M81 27.75 C81 33.92, 77.92 37, 71.75 37 M81 27.75 C81 33.92, 77.92 37, 71.75 37 M71.75 37 C49.38 37, 27.02 37, 9.25 37 M71.75 37 C51.24 37, 30.73 37, 9.25 37 M9.25 37 C3.08 37, 0 33.92, 0 27.75 M9.25 37 C3.08 37, 0 33.92, 0 27.75 M0 27.75 C0 20.92, 0 14.09, 0 9.25 M0 27.75 C0 22.48, 0 17.2, 0 9.25 M0 9.25 C0 3.08, 3.08 0, 9.25 0 M0 9.25 C0 3.08, 3.08 0, 9.25 0" stroke="#000000" stroke-width="2" fill="none"></path></g><g stroke-linecap="round"><g transform="translate(430.5474612709311 50.80579373201064) rotate(0 0 18.392857142857153)"><path d="M0 0 C0 6.13, 0 30.65, 0 36.79 M0 0 C0 6.13, 0 30.65, 0 36.79" stroke="#000000" stroke-width="2" fill="none"></path></g></g><g transform="translate(399.586667075297 56.32480412030017) rotate(0 6 12)"><text x="6" y="19" font-family="Cascadia, Segoe UI Emoji" font-size="20px" fill="#000000" text-anchor="middle" style="white-space: pre;" direction="ltr">4</text></g><g transform="translate(505.3536513384911 57.065298926155435) rotate(0 23.5 12)"><text x="0" y="19" font-family="Cascadia, Segoe UI Emoji" font-size="20px" fill="#000000" text-anchor="start" style="white-space: pre;" direction="ltr">NULL</text></g><g stroke-linecap="round"><g transform="translate(81.08595663172309 69.77958464044116) rotate(0 20.535714285714334 -0.1785714285714306)"><path d="M0 0 C6.85 -0.06, 34.23 -0.3, 41.07 -0.36 M0 0 C6.85 -0.06, 34.23 -0.3, 41.07 -0.36" stroke="#000000" stroke-width="2" fill="none"></path></g><g transform="translate(81.08595663172309 69.77958464044116) rotate(0 20.535714285714334 -0.1785714285714306)"><path d="M21.84 6.83 C28.43 4.37, 35.03 1.9, 41.07 -0.36 M21.84 6.83 C26.58 5.06, 31.32 3.29, 41.07 -0.36" stroke="#000000" stroke-width="2" fill="none"></path></g><g transform="translate(81.08595663172309 69.77958464044116) rotate(0 20.535714285714334 -0.1785714285714306)"><path d="M21.71 -7.21 C28.35 -4.86, 35 -2.51, 41.07 -0.36 M21.71 -7.21 C26.48 -5.52, 31.26 -3.83, 41.07 -0.36" stroke="#000000" stroke-width="2" fill="none"></path></g></g><g stroke-linecap="round"><g transform="translate(202.2123302580967 69.94441980527628) rotate(0 23.55769230769232 -0.3434065934065842)"><path d="M0 0 C7.85 -0.11, 39.26 -0.57, 47.12 -0.69 M0 0 C7.85 -0.11, 39.26 -0.57, 47.12 -0.69" stroke="#000000" stroke-width="2" fill="none"></path></g><g transform="translate(202.2123302580967 69.94441980527628) rotate(0 23.55769230769232 -0.3434065934065842)"><path d="M25.1 7.69 C30.27 5.72, 35.45 3.75, 47.12 -0.69 M25.1 7.69 C31.46 5.27, 37.82 2.85, 47.12 -0.69" stroke="#000000" stroke-width="2" fill="none"></path></g><g transform="translate(202.2123302580967 69.94441980527628) rotate(0 23.55769230769232 -0.3434065934065842)"><path d="M24.86 -8.42 C30.09 -6.6, 35.33 -4.78, 47.12 -0.69 M24.86 -8.42 C31.29 -6.19, 37.72 -3.95, 47.12 -0.69" stroke="#000000" stroke-width="2" fill="none"></path></g></g><g stroke-linecap="round"><g transform="translate(326.7524640373608 69.64222200307853) rotate(0 22.63377926421407 -0.5769230769230802)"><path d="M0 0 C7.54 -0.19, 37.72 -0.96, 45.27 -1.15 M0 0 C7.54 -0.19, 37.72 -0.96, 45.27 -1.15" stroke="#000000" stroke-width="2" fill="none"></path></g><g transform="translate(326.7524640373608 69.64222200307853) rotate(0 22.63377926421407 -0.5769230769230802)"><path d="M24.2 7.13 C29.4 5.08, 34.61 3.03, 45.27 -1.15 M24.2 7.13 C29.7 4.97, 35.2 2.8, 45.27 -1.15" stroke="#000000" stroke-width="2" fill="none"></path></g><g transform="translate(326.7524640373608 69.64222200307853) rotate(0 22.63377926421407 -0.5769230769230802)"><path d="M23.8 -8.35 C29.11 -6.57, 34.41 -4.79, 45.27 -1.15 M23.8 -8.35 C29.41 -6.47, 35.02 -4.59, 45.27 -1.15" stroke="#000000" stroke-width="2" fill="none"></path></g></g><g stroke-linecap="round"><g transform="translate(450.21404140918855 69.69271205356853) rotate(0 23.267374517374492 -0.49227799227797675)"><path d="M0 0 C7.76 -0.16, 38.78 -0.82, 46.53 -0.98 M0 0 C7.76 -0.16, 38.78 -0.82, 46.53 -0.98" stroke="#000000" stroke-width="2" fill="none"></path></g><g transform="translate(450.21404140918855 69.69271205356853) rotate(0 23.267374517374492 -0.49227799227797675)"><path d="M24.84 7.44 C30.24 5.34, 35.64 3.24, 46.53 -0.98 M24.84 7.44 C30.68 5.17, 36.52 2.9, 46.53 -0.98" stroke="#000000" stroke-width="2" fill="none"></path></g><g transform="translate(450.21404140918855 69.69271205356853) rotate(0 23.267374517374492 -0.49227799227797675)"><path d="M24.5 -8.48 C29.99 -6.61, 35.47 -4.75, 46.53 -0.98 M24.5 -8.48 C30.43 -6.46, 36.37 -4.44, 46.53 -0.98" stroke="#000000" stroke-width="2" fill="none"></path></g></g><g transform="translate(159.78140541064147 131.2685927906517) rotate(0 6 12)"><text x="0" y="19" font-family="Cascadia, Segoe UI Emoji" font-size="20px" fill="#000000" text-anchor="start" style="white-space: pre;" direction="ltr">p</text></g><g stroke-linecap="round"><g transform="translate(167.9632235924596 122.88980491186379) rotate(0 2.272727272727309 -12.424242424242422)"><path d="M0 0 C0.76 -4.14, 3.79 -20.71, 4.55 -24.85 M0 0 C0.76 -4.14, 3.79 -20.71, 4.55 -24.85" stroke="#000000" stroke-width="2" fill="none"></path></g><g transform="translate(167.9632235924596 122.88980491186379) rotate(0 2.272727272727309 -12.424242424242422)"><path d="M6.66 -12.4 C5.97 -16.47, 5.28 -20.53, 4.55 -24.85 M6.66 -12.4 C6.09 -15.75, 5.52 -19.11, 4.55 -24.85" stroke="#000000" stroke-width="2" fill="none"></path></g><g transform="translate(167.9632235924596 122.88980491186379) rotate(0 2.272727272727309 -12.424242424242422)"><path d="M-1.84 -13.95 C0.25 -17.51, 2.33 -21.07, 4.55 -24.85 M-1.84 -13.95 C-0.12 -16.89, 1.6 -19.83, 4.55 -24.85" stroke="#000000" stroke-width="2" fill="none"></path></g></g><g transform="translate(266.75110238033835 131.87465339671226) rotate(0 23.5 12)"><text x="0" y="19" font-family="Cascadia, Segoe UI Emoji" font-size="20px" fill="#000000" text-anchor="start" style="white-space: pre;" direction="ltr">node</text></g><g stroke-linecap="round"><g transform="translate(284.9329205621566 125.3140473361062) rotate(0 2.4242424242424363 -13.636363636363626)"><path d="M0 0 C0.81 -4.55, 4.04 -22.73, 4.85 -27.27 M0 0 C0.81 -4.55, 4.04 -22.73, 4.85 -27.27" stroke="#000000" stroke-width="2" fill="none"></path></g><g transform="translate(284.9329205621566 125.3140473361062) rotate(0 2.4242424242424363 -13.636363636363626)"><path d="M7.23 -13.63 C6.33 -18.78, 5.43 -23.92, 4.85 -27.27 M7.23 -13.63 C6.66 -16.9, 6.09 -20.16, 4.85 -27.27" stroke="#000000" stroke-width="2" fill="none"></path></g><g transform="translate(284.9329205621566 125.3140473361062) rotate(0 2.4242424242424363 -13.636363636363626)"><path d="M-2.09 -15.29 C0.53 -19.81, 3.14 -24.33, 4.85 -27.27 M-2.09 -15.29 C-0.43 -18.16, 1.23 -21.03, 4.85 -27.27" stroke="#000000" stroke-width="2" fill="none"></path></g></g><g stroke-linecap="round"><g transform="translate(223.3615521157884 52.83088235294122) rotate(0 8.28125 17.03125)"><path d="M0 0 C2.76 5.68, 13.8 28.39, 16.56 34.06 M0 0 C2.76 5.68, 13.8 28.39, 16.56 34.06" stroke="#c92a2a" stroke-width="2" fill="none"></path></g></g><g stroke-linecap="round"><g transform="translate(244.6115521157884 53.76838235294122) rotate(0 -12.5 17.03125)"><path d="M0 0 C-4.17 5.68, -20.83 28.39, -25 34.06 M0 0 C-4.17 5.68, -20.83 28.39, -25 34.06" stroke="#c92a2a" stroke-width="2" fill="none"></path></g></g><g stroke-linecap="round"><g transform="translate(200.18140505696488 57.64705882352939) rotate(0 87.05882352941177 -21.764705882352928)"><path d="M0 0 C17.55 -7.94, 76.27 -48.33, 105.29 -47.65 C134.31 -46.96, 162.65 -4.51, 174.12 4.12 M0 0 C17.55 -7.94, 76.27 -48.33, 105.29 -47.65 C134.31 -46.96, 162.65 -4.51, 174.12 4.12" stroke="#c92a2a" stroke-width="2" fill="none"></path></g><g transform="translate(200.18140505696488 57.64705882352939) rotate(0 87.05882352941177 -21.764705882352928)"><path d="M147.11 -8.95 C155.63 -4.83, 164.15 -0.7, 174.12 4.12 M147.11 -8.95 C157.39 -3.97, 167.67 1, 174.12 4.12" stroke="#c92a2a" stroke-width="2" fill="none"></path></g><g transform="translate(200.18140505696488 57.64705882352939) rotate(0 87.05882352941177 -21.764705882352928)"><path d="M161.83 -23.25 C165.7 -14.62, 169.58 -5.98, 174.12 4.12 M161.83 -23.25 C166.5 -12.83, 171.18 -2.42, 174.12 4.12" stroke="#c92a2a" stroke-width="2" fill="none"></path></g></g></svg>